<?xml version="1.0" standalone="no"?>
<!DOCTYPE svg PUBLIC "-//W3C//DTD SVG 1.1//EN" "http://www.w3.org/Graphics/SVG/1.1/DTD/svg11.dtd" >
<svg xmlns="http://www.w3.org/2000/svg">
<metadata></metadata>
<defs>
<font id="tp_herolight" horiz-adv-x="1316" >
<font-face units-per-em="2048" ascent="1638" descent="-410" />
<missing-glyph horiz-adv-x="604" />
<glyph unicode="&#xfb01;" horiz-adv-x="1255" d="M59 981v115h160v190q0 161 98.5 258.5t249.5 97.5q88 0 170 -30v-127q-76 31 -164 31q-225 0 -225 -254v-166h328v-115h-328v-981h-127v981h-162zM905 1481q0 38 25 63t65 25t65 -25t25 -63t-25 -63t-65 -25t-65 25t-25 63zM932 0v1096h127v-1096h-127z" />
<glyph unicode="&#xfb02;" horiz-adv-x="1253" d="M59 981v115h160v190q0 161 98.5 258.5t249.5 97.5q88 0 170 -30v-127q-76 31 -164 31q-225 0 -225 -254v-166h328v-115h-328v-981h-127v981h-162zM936 0v1634h127v-1634h-127z" />
<glyph horiz-adv-x="0" />
<glyph horiz-adv-x="682" />
<glyph unicode="&#xd;" horiz-adv-x="0" />
<glyph unicode=" "  horiz-adv-x="604" />
<glyph unicode="&#x09;" horiz-adv-x="604" />
<glyph unicode="&#xa0;" horiz-adv-x="604" />
<glyph unicode="!" horiz-adv-x="585" d="M190 94q0 44 29.5 73.5t73.5 29.5t73 -29.5t29 -73.5t-29 -73t-73 -29t-73.5 29t-29.5 73zM221 1522h137l-16 -1073h-102z" />
<glyph unicode="&#x22;" horiz-adv-x="679" d="M109 1522h141l-21 -516h-92zM430 1522h141l-20 -516h-92z" />
<glyph unicode="#" horiz-adv-x="1198" d="M106 496v110h236l49 322h-223v110h238l73 484h113l-74 -484h279l73 484h115l-74 -484h181v-110h-197l-47 -322h182v-110h-196l-74 -496h-115l74 496h-279l-73 -496h-113l74 496h-222zM457 606h276l49 322h-278z" />
<glyph unicode="$" horiz-adv-x="1136" d="M129 154v170q70 -81 177.5 -124.5t219.5 -43.5q148 0 248 78.5t100 203.5q0 57 -25.5 101.5t-68 74t-98 54t-117 45.5t-122.5 44t-116.5 54.5t-98 71.5t-68 100.5t-25.5 136.5q0 139 98 240.5t261 124.5v182h122v-178q165 -8 299 -86v-150q-56 43 -147.5 75t-189.5 32 q-143 0 -228.5 -69.5t-85.5 -174.5q0 -56 25.5 -99.5t68.5 -72.5t99 -52.5t117.5 -44.5t123 -44t117.5 -55.5t99 -73.5t68.5 -104t25.5 -142q0 -141 -109 -255t-283 -140v-180h-122v174q-206 10 -365 127z" />
<glyph unicode="%" horiz-adv-x="1662" d="M53 1171q0 163 103 271t258 108q154 0 255 -108t101 -271t-101 -270.5t-255 -107.5q-156 0 -258.5 107t-102.5 271zM164 1171q0 -124 74.5 -199t175.5 -75q99 0 173.5 75.5t74.5 198.5q0 125 -74 200t-174 75q-101 0 -175.5 -75t-74.5 -200zM262 0l1002 1522h137 l-1002 -1522h-137zM893 350q0 163 102.5 271t257.5 108q154 0 255.5 -108t101.5 -271t-101.5 -271t-255.5 -108q-155 0 -257.5 107.5t-102.5 271.5zM1004 350q0 -124 74 -199t175 -75q99 0 173.5 75.5t74.5 198.5q0 125 -74 200t-174 75q-101 0 -175 -75t-74 -200z" />
<glyph unicode="&#x26;" horiz-adv-x="1488" d="M127 391q0 79 25.5 145t74.5 117t105.5 89t134.5 77q-110 116 -164.5 205t-54.5 176q0 152 111.5 249t275.5 97q175 0 283 -102.5t108 -245.5q0 -60 -21.5 -114t-54 -94.5t-83.5 -79.5t-98 -66t-110 -58l363 -372l250 389h141l-307 -475l317 -328h-163l-224 229 q-95 -128 -203 -192t-249 -64q-200 0 -328.5 117t-128.5 301zM254 401q0 -131 91.5 -218t238.5 -87q220 0 372 215l-409 422q-56 -27 -94.5 -49t-79 -53t-64.5 -63t-39.5 -74.5t-15.5 -92.5zM375 1200q0 -70 45 -138.5t160 -189.5q61 28 102 49.5t85.5 52t71 60t43.5 69 t17 83.5q0 100 -71.5 169.5t-192.5 69.5q-118 0 -189 -65t-71 -160z" />
<glyph unicode="'" horiz-adv-x="358" d="M109 1522h141l-21 -516h-92z" />
<glyph unicode="(" horiz-adv-x="653" d="M119 629q0 260 96.5 486.5t265.5 406.5h162q-188 -178 -293.5 -406.5t-105.5 -486.5t106 -486.5t293 -408.5h-162q-169 180 -265.5 406.5t-96.5 488.5z" />
<glyph unicode=")" horiz-adv-x="653" d="M10 -266q188 180 294 408.5t106 486.5t-106 486.5t-294 406.5h162q169 -180 266 -406.5t97 -486.5q0 -262 -97 -488.5t-266 -406.5h-162z" />
<glyph unicode="*" horiz-adv-x="1097" d="M88 1268l41 125l369 -133l-23 374h133l-22 -374l375 135l47 -127l-394 -90l254 -295l-104 -76l-219 319l-217 -319l-109 76l254 295z" />
<glyph unicode="+" horiz-adv-x="1310" d="M80 698v123h508v516h127v-516h516v-123h-516v-516h-127v516h-508z" />
<glyph unicode="," horiz-adv-x="481" d="M113 -272q88 264 88 450v82h127v-80q0 -158 -115 -452h-100z" />
<glyph unicode="-" horiz-adv-x="718" d="M109 592v125h501v-125h-501z" />
<glyph unicode="." horiz-adv-x="481" d="M139 94q0 44 29.5 73.5t73.5 29.5t73 -29.5t29 -73.5t-29 -73t-73 -29t-73.5 29t-29.5 73z" />
<glyph unicode="/" horiz-adv-x="878" d="M33 -272l684 2064h129l-684 -2064h-129z" />
<glyph unicode="0" horiz-adv-x="1361" d="M135 760q0 182 43 332t117 249.5t173 154t212 54.5t212.5 -54.5t174 -154t117.5 -250t43 -331.5t-43 -331.5t-117.5 -249.5t-174 -153.5t-212.5 -54.5t-212 54.5t-173 153.5t-117 249t-43 332zM266 760q0 -308 118 -487t296 -179t297 179.5t119 486.5t-119 487t-297 180 t-296 -180t-118 -487z" />
<glyph unicode="1" horiz-adv-x="931" d="M90 1167v140l506 219h16v-1526h-127v1339z" />
<glyph unicode="2" horiz-adv-x="1177" d="M78 0v16q118 130 183.5 202.5t151 169t129 149.5t100 122.5t82 110t56 90.5t42 86t20 74t8.5 76q0 87 -39.5 161t-122 122t-192.5 48q-105 0 -198 -53t-167 -135v160q67 67 166 109t211 42q143 0 251.5 -63t163 -165.5t54.5 -225.5q0 -61 -16.5 -123t-57.5 -135.5 t-87 -141t-128.5 -167t-157 -183.5t-196.5 -219h694v-127h-950z" />
<glyph unicode="3" horiz-adv-x="1163" d="M127 129v164q73 -90 177.5 -141.5t227.5 -51.5q163 0 260 88.5t97 223.5q0 138 -103 222.5t-276 84.5h-191v123h144q180 0 276.5 80.5t96.5 214.5q0 123 -84.5 205.5t-227.5 82.5q-106 0 -200 -48t-152 -124v158q61 64 154 101.5t198 37.5q130 0 231.5 -56.5t154.5 -147 t53 -195.5q0 -121 -62 -215.5t-172 -138.5v-4q124 -42 205.5 -141t81.5 -249q0 -84 -32 -160.5t-91.5 -136.5t-153 -95.5t-207.5 -35.5q-241 0 -405 154z" />
<glyph unicode="4" horiz-adv-x="1335" d="M78 377v82l776 1063h100v-1022h271v-123h-271v-377h-123v377h-753zM252 500h579v794l-579 -790v-4z" />
<glyph unicode="5" horiz-adv-x="1165" d="M115 121v170q72 -93 183 -143t222 -50q172 0 278.5 98.5t106.5 254.5q0 160 -107.5 261t-289.5 101q-80 0 -144.5 -20t-142.5 -58l-14 13l145 774h617v-123h-523l-98 -500q98 35 184 35q116 0 212.5 -40.5t158 -107.5t95.5 -151t34 -174q0 -73 -18.5 -142.5t-60 -133 t-101 -111t-147.5 -75.5t-195 -28q-226 0 -395 150z" />
<glyph unicode="6" horiz-adv-x="1280" d="M135 471q0 116 50 221.5t157 235.5l473 594h148v-6l-461 -576q66 16 137 16q91 0 181 -34.5t162 -95t116.5 -152.5t44.5 -199q0 -140 -63.5 -255t-178.5 -182t-260 -67t-261.5 68t-180.5 182t-64 250zM262 469q0 -152 108.5 -263.5t270.5 -111.5q161 0 268 109.5 t107 259.5q0 90 -35 163t-94 119t-132 70.5t-153 24.5q-114 0 -215 -49q-66 -87 -95.5 -160t-29.5 -162z" />
<glyph unicode="7" horiz-adv-x="1138" d="M133 1399v123h948v-21l-790 -1501h-139l737 1399h-756z" />
<glyph unicode="8" horiz-adv-x="1294" d="M145 397q0 131 73.5 236t205.5 151v4q-105 46 -170.5 136.5t-65.5 214.5q0 168 127.5 289.5t329.5 121.5t329.5 -121.5t127.5 -289.5q0 -124 -65.5 -215.5t-168.5 -137.5v-4q133 -46 207 -150.5t74 -234.5q0 -186 -140.5 -306t-363.5 -120q-221 0 -360.5 120.5 t-139.5 305.5zM274 406q0 -130 102 -221t269 -91q170 0 273.5 91t103.5 221q0 136 -105 224.5t-272 88.5q-166 0 -268.5 -88.5t-102.5 -224.5zM315 1139q0 -130 93.5 -211.5t236.5 -81.5t236.5 81.5t93.5 211.5q0 121 -94.5 204.5t-235.5 83.5q-144 0 -237 -82t-93 -206z " />
<glyph unicode="9" horiz-adv-x="1280" d="M154 1051q0 134 61.5 247.5t176 182.5t257.5 69q108 0 201 -38.5t156 -104.5t99 -156t36 -192q0 -107 -47.5 -214.5t-155.5 -236.5l-489 -608h-150v6l467 576q-51 -15 -119 -15q-85 0 -171.5 33t-158.5 92.5t-117.5 153.5t-45.5 205zM281 1059q0 -161 111 -268t274 -107 q116 0 219 47q68 89 98.5 163.5t30.5 162.5q0 156 -102 263t-263 107t-264.5 -107.5t-103.5 -260.5z" />
<glyph unicode=":" horiz-adv-x="481" d="M139 94q0 44 29.5 73.5t73.5 29.5t73 -29.5t29 -73.5t-29 -73t-73 -29t-73.5 29t-29.5 73zM139 797q0 44 29.5 73t73.5 29t73 -29t29 -73t-29 -73.5t-73 -29.5t-73.5 29.5t-29.5 73.5z" />
<glyph unicode=";" horiz-adv-x="481" d="M113 -272q88 264 88 450v82h127v-80q0 -158 -115 -452h-100zM139 797q0 44 29.5 73t73.5 29t73 -29t29 -73t-29 -73.5t-73 -29.5t-73.5 29.5t-29.5 73.5z" />
<glyph unicode="&#x3c;" horiz-adv-x="1310" d="M129 690l1053 -440v135l-912 375l912 375v135l-1053 -445v-135z" />
<glyph unicode="=" horiz-adv-x="1310" d="M129 532v123h1053v-123h-1053zM129 864v123h1053v-123h-1053z" />
<glyph unicode="&#x3e;" horiz-adv-x="1310" d="M129 250l1053 440v135l-1053 445v-135l911 -375l-911 -375v-135z" />
<glyph unicode="?" horiz-adv-x="1001" d="M109 1229v164q64 67 162 112t208 45q183 0 305.5 -119t122.5 -307q0 -40 -9.5 -81t-21 -73.5t-41.5 -79.5t-50 -76.5t-70 -88t-77 -89t-94 -104.5q-12 -13 -18 -20h-151q35 39 89 99.5t80.5 91t66.5 77.5t59 74.5t43 65.5t35 66.5t18.5 62t7.5 67.5q0 136 -85.5 220.5 t-217.5 84.5q-99 0 -196.5 -54t-165.5 -138zM362 94q0 44 29.5 73.5t73.5 29.5t73 -29.5t29 -73.5t-29 -73t-73 -29t-73.5 29t-29.5 73z" />
<glyph unicode="@" horiz-adv-x="1984" d="M127 494q0 181 55.5 338t149 268t215.5 190.5t256 117.5t270 38q124 0 241 -30t218.5 -91.5t177.5 -146.5t120 -201.5t44 -251.5q0 -138 -46.5 -260.5t-124 -208t-179.5 -135t-211 -49.5h-62l15 180q-135 -199 -338 -199q-74 0 -140 27t-118.5 78t-83.5 132.5t-31 182.5 q0 152 62.5 279.5t171.5 202.5t241 75q107 0 190.5 -55t125.5 -160l53 197h88l-129 -840q67 7 134.5 46.5t125 105.5t93.5 166.5t36 216.5q0 149 -56 269t-150.5 194.5t-212.5 113.5t-249 39q-121 0 -237.5 -32.5t-222 -100.5t-185.5 -164t-127 -233.5t-47 -298.5 q0 -150 44 -272t119.5 -203.5t178 -137t216 -80t237.5 -24.5q185 0 350 55l-19 -129q-168 -49 -342 -49q-143 0 -275 31t-249.5 98t-204.5 163.5t-137.5 237.5t-50.5 310zM684 483q0 -151 75 -230t187 -79q146 0 249 123t103 297q0 140 -74.5 227.5t-191.5 87.5 q-145 0 -246.5 -124.5t-101.5 -301.5z" />
<glyph unicode="A" horiz-adv-x="1431" d="M35 0l610 1522h141l611 -1522h-140l-198 502h-688l-199 -502h-137zM420 627h588l-293 741z" />
<glyph unicode="B" horiz-adv-x="1304" d="M225 0v1522h416q229 0 355 -108t126 -281q0 -127 -64 -214t-169 -128v-5q140 -45 213.5 -143t73.5 -227q0 -179 -133.5 -297.5t-376.5 -118.5h-441zM352 123h318q177 0 275.5 82.5t98.5 216.5q0 138 -101.5 216.5t-260.5 78.5h-330v-594zM352 840h293q162 0 254 79 t92 207q0 129 -87.5 201t-239.5 72h-312v-559z" />
<glyph unicode="C" horiz-adv-x="1361" d="M127 764q0 177 62 327.5t165.5 249.5t237 154t278.5 55q229 0 396 -102v-143q-99 60 -191.5 90t-208.5 30q-89 0 -176 -27.5t-164.5 -84t-137 -134.5t-94 -186t-34.5 -231q0 -152 53 -280t139.5 -210.5t194 -128t219.5 -45.5q116 0 208.5 30.5t191.5 90.5v-145 q-172 -103 -396 -103q-145 0 -278.5 55.5t-237 155.5t-165.5 251.5t-62 330.5z" />
<glyph unicode="D" horiz-adv-x="1484" d="M225 0v1522h332q365 0 583 -208t218 -552q0 -228 -100.5 -401t-282 -267t-418.5 -94h-332zM352 123h211q144 0 265 42.5t209.5 122.5t138 201t49.5 271q0 151 -49.5 273t-137.5 201.5t-208 122t-263 42.5h-215v-1276z" />
<glyph unicode="E" horiz-adv-x="1155" d="M225 0v1522h781v-123h-654v-559h611v-123h-611v-594h654v-123h-781z" />
<glyph unicode="F" horiz-adv-x="1140" d="M225 0v1522h791v-123h-664v-592h637v-123h-637v-684h-127z" />
<glyph unicode="G" horiz-adv-x="1515" d="M127 760q0 175 59 324t159.5 250.5t235.5 158.5t287 57q238 0 424 -106v-148q-208 123 -430 123q-122 0 -232 -47.5t-192 -132t-130 -208.5t-48 -269t47 -269.5t128.5 -210t192 -134t234.5 -48.5q103 0 179.5 17.5t156.5 56.5v649h127v-733q-221 -119 -463 -119 q-146 0 -279.5 57t-234.5 158t-161 250.5t-60 323.5z" />
<glyph unicode="H" horiz-adv-x="1540" d="M225 0v1522h127v-684h836v684h127v-1522h-127v715h-836v-715h-127z" />
<glyph unicode="I" horiz-adv-x="577" d="M225 0v1522h127v-1522h-127z" />
<glyph unicode="J" horiz-adv-x="917" d="M66 82v158q117 -138 272 -138q118 0 186 77t68 224v1119h127v-1139q0 -180 -103.5 -293t-275.5 -113q-76 0 -149 27.5t-125 77.5z" />
<glyph unicode="K" horiz-adv-x="1335" d="M225 0v1522h127v-752l748 752h170l-760 -760l768 -762h-176l-750 754v-754h-127z" />
<glyph unicode="L" horiz-adv-x="1103" d="M225 0v1522h127v-1399h690v-123h-817z" />
<glyph unicode="M" horiz-adv-x="2004" d="M137 0l242 1522h160l467 -1332h2l454 1332h168l238 -1522h-131l-207 1331h-4l-461 -1331h-121l-467 1319h-4l-205 -1319h-131z" />
<glyph unicode="N" horiz-adv-x="1619" d="M225 0v1522h135l916 -1305h4q-12 319 -12 961v344h127v-1522h-115l-932 1321h-4q8 -262 8 -977v-344h-127z" />
<glyph unicode="O" horiz-adv-x="1740" d="M127 760q0 220 95.5 400.5t266.5 285t383 104.5q210 0 380.5 -104.5t266 -285t95.5 -400.5q0 -165 -56 -311t-154 -251t-236 -166t-296 -61q-213 0 -383.5 103t-266 283.5t-95.5 402.5zM260 760q0 -123 33.5 -230.5t91.5 -186t135.5 -135t167 -84.5t184.5 -28 q118 0 227.5 46t194.5 128.5t136 210t51 279.5q0 153 -51 280.5t-136.5 210.5t-194.5 128.5t-227 45.5q-120 0 -230 -45.5t-195.5 -128.5t-136 -210.5t-50.5 -280.5z" />
<glyph unicode="P" horiz-adv-x="1189" d="M225 0v1522h340q255 0 409 -127t154 -351q0 -229 -154.5 -360t-408.5 -131h-213v-553h-127zM352 676h221q198 0 312 97.5t114 268.5q0 170 -113 263.5t-313 93.5h-221v-723z" />
<glyph unicode="Q" horiz-adv-x="1767" d="M127 760q0 220 95.5 400.5t266.5 285t383 104.5q210 0 380.5 -104.5t266 -285t95.5 -400.5q0 -159 -51.5 -300t-145.5 -247l223 -231l-92 -88l-223 231q-197 -154 -453 -154q-213 0 -383.5 103t-266 283.5t-95.5 402.5zM260 760q0 -123 33.5 -230.5t91.5 -186t135.5 -135 t167 -84.5t184.5 -28q203 0 363 123l-313 324l92 88l313 -324q154 182 154 453q0 153 -51 280.5t-136.5 210.5t-194.5 128.5t-227 45.5q-120 0 -230 -45.5t-195.5 -128.5t-136 -210.5t-50.5 -280.5z" />
<glyph unicode="R" horiz-adv-x="1251" d="M225 0v1522h369q249 0 378.5 -121.5t129.5 -317.5q0 -204 -150 -318q-147 -112 -400 -112h-9l620 -653h-176l-612 653h-23v-653h-127zM352 770h207q203 0 307.5 85.5t104.5 227.5q0 150 -99.5 233t-291.5 83h-228v-629z" />
<glyph unicode="S" horiz-adv-x="1148" d="M129 111v163q77 -84 183 -131t225 -47q154 0 252 83.5t98 215.5q0 36 -9.5 68t-24.5 57.5t-43 51t-55 44.5t-70.5 42.5t-79 40.5t-91.5 42q-39 17 -63 28.5t-63 32t-64 38.5t-56.5 43.5t-51.5 53.5t-38.5 62t-27.5 74.5t-9 85.5q0 164 126.5 279.5t330.5 115.5 q91 0 183 -28t161 -70v-149q-161 118 -350 118q-146 0 -234 -78t-88 -186q0 -54 21 -99t63.5 -80.5t88 -61.5t112.5 -56l56 -24t62.5 -27.5t61 -29.5t63 -34t57 -38.5t54.5 -46t44 -52t36.5 -61t21.5 -69.5t9 -81q0 -88 -35 -167.5t-97 -138.5t-154 -93.5t-199 -34.5 q-121 0 -226 41.5t-180 102.5z" />
<glyph unicode="T" horiz-adv-x="1212" d="M47 1399v123h1118v-123h-495v-1399h-127v1399h-496z" />
<glyph unicode="U" horiz-adv-x="1515" d="M203 563v959h127v-971q0 -209 113.5 -332t306.5 -123q198 0 317 124t119 335v967h127v-957q0 -267 -154 -430.5t-409 -163.5q-251 0 -399 163t-148 429z" />
<glyph unicode="V" horiz-adv-x="1411" d="M27 1522h139l543 -1372l538 1372h137l-610 -1522h-135z" />
<glyph unicode="W" horiz-adv-x="2187" d="M68 1522h137l389 -1342h2l434 1342h131l438 -1344h3l383 1344h135l-451 -1522h-139l-434 1333l-437 -1333h-137z" />
<glyph unicode="X" horiz-adv-x="1261" d="M63 0l492 766l-477 756h147l406 -652l409 652h146l-481 -752l493 -770h-147l-422 668l-420 -668h-146z" />
<glyph unicode="Y" horiz-adv-x="1290" d="M29 1522h145l473 -742h2l469 742h146l-553 -863v-659h-123v657z" />
<glyph unicode="Z" horiz-adv-x="1251" d="M92 0v16l846 1383h-791v123h1002v-17l-846 -1382h807v-123h-1018z" />
<glyph unicode="[" horiz-adv-x="630" d="M180 -430v2064h383v-123h-256v-1818h256v-123h-383z" />
<glyph unicode="\" horiz-adv-x="878" d="M33 1792h129l684 -2064h-129z" />
<glyph unicode="]" horiz-adv-x="630" d="M68 -307h256v1818h-256v123h383v-2064h-383v123z" />
<glyph unicode="^" horiz-adv-x="1310" d="M203 526l403 996h101l403 -996h-133l-320 811l-325 -811h-129z" />
<glyph unicode="_" horiz-adv-x="1079" d="M0 -229h1079v-113h-1079v113z" />
<glyph unicode="`" horiz-adv-x="1097" d="M344 1612l274 -336h117l-241 336h-150z" />
<glyph unicode="a" d="M109 547q0 128 41.5 237t111.5 181t160 112.5t188 40.5q124 0 233.5 -60.5t172.5 -178.5l18 217h101v-1096h-101l-18 217q-63 -118 -173 -179t-233 -61q-98 0 -188 41t-160 113t-111.5 180.5t-41.5 235.5zM236 547q0 -197 112 -322t277 -125q164 0 275.5 126t111.5 323 q0 195 -111.5 320.5t-275.5 125.5q-166 0 -277.5 -124.5t-111.5 -323.5z" />
<glyph unicode="b" d="M182 0v1634h127v-745q58 110 166 169.5t230 59.5q98 0 188.5 -40.5t160.5 -112.5t112 -181t42 -237q0 -127 -42 -235.5t-112 -180.5t-160.5 -113t-188.5 -41q-123 0 -232 61t-172 179l-18 -217h-101zM305 549q0 -197 111.5 -323t275.5 -126q165 0 277 125t112 322 q0 199 -111.5 323.5t-277.5 124.5q-164 0 -275.5 -125.5t-111.5 -320.5z" />
<glyph unicode="c" horiz-adv-x="1054" d="M109 549q0 158 69.5 288t193.5 205.5t277 75.5q182 0 297 -78v-143q-68 53 -139 75.5t-162 22.5q-78 0 -151.5 -31t-131 -87t-92 -141.5t-34.5 -186.5q0 -103 34.5 -189t92.5 -142t131.5 -87t152.5 -31q180 0 299 93v-142q-125 -74 -297 -74q-232 0 -386 164t-154 408z " />
<glyph unicode="d" d="M109 547q0 128 41.5 237t111.5 181t160 112.5t188 40.5q122 0 231 -59t167 -168v743h127v-1634h-101l-18 217q-63 -118 -173 -179t-233 -61q-98 0 -188 41t-160 113t-111.5 180.5t-41.5 235.5zM236 547q0 -197 112 -322t277 -125q164 0 275.5 126t111.5 323 q0 195 -111.5 320.5t-275.5 125.5q-166 0 -277.5 -124.5t-111.5 -323.5z" />
<glyph unicode="e" horiz-adv-x="1196" d="M109 547q0 128 41.5 237t111.5 181t161 112.5t189 40.5t182.5 -36t149.5 -103t102 -173t37 -237q0 -33 -4 -69h-841q7 -127 64 -219t143.5 -136.5t191.5 -44.5q224 0 387 160v-149q-159 -134 -389 -134q-151 0 -270 69t-187.5 199.5t-68.5 301.5zM240 614h718 q-2 96 -32 171t-78 119.5t-105 67.5t-118 23q-158 0 -263.5 -110.5t-121.5 -270.5z" />
<glyph unicode="f" horiz-adv-x="714" d="M59 981v115h160v190q0 161 98.5 258.5t249.5 97.5q88 0 170 -30v-127q-76 31 -164 31q-225 0 -225 -254v-166h328v-115h-328v-981h-127v981h-162z" />
<glyph unicode="g" d="M109 565q0 120 42 224.5t111 175t160 111t188 40.5q123 0 233 -57t173 -166l18 203h101v-1028q0 -127 -43 -228.5t-115 -164t-161.5 -95.5t-186.5 -33q-108 0 -214 37.5t-192 104.5v153q177 -168 408 -168q99 0 184.5 44t139 128.5t53.5 192.5v197q-65 -104 -172 -162 t-226 -58q-97 0 -188 40t-160 110t-111 174.5t-42 224.5zM236 563q0 -183 112.5 -304.5t276.5 -121.5q163 0 275 124.5t112 311.5q0 183 -111.5 301.5t-275.5 118.5t-276.5 -122t-112.5 -308z" />
<glyph unicode="h" horiz-adv-x="1206" d="M182 0v1634h127v-682h4q48 76 134 121t188 45q187 0 294 -102t107 -295v-721h-127v670q0 164 -70.5 244.5t-215.5 80.5q-63 0 -118.5 -18.5t-100 -54.5t-70 -96t-25.5 -136v-690h-127z" />
<glyph unicode="i" horiz-adv-x="520" d="M170 1481q0 38 25 63t65 25t65 -25t25 -63t-25 -63t-65 -25t-65 25t-25 63zM197 0v1096h127v-1096h-127z" />
<glyph unicode="j" horiz-adv-x="505" d="M-6 -430q103 105 153 237.5t50 323.5v965h127v-969q0 -182 -39.5 -313.5t-128.5 -243.5h-162zM170 1481q0 38 26 63t64 25q40 0 65 -25t25 -63t-25 -63t-65 -25q-38 0 -64 25t-26 63z" />
<glyph unicode="k" horiz-adv-x="1058" d="M182 0v1634h127v-1048l525 510h174l-539 -521l559 -575h-174l-545 567v-567h-127z" />
<glyph unicode="l" horiz-adv-x="507" d="M190 0v1634h127v-1634h-127z" />
<glyph unicode="m" horiz-adv-x="1724" d="M182 0v1096h99l16 -166h4q41 85 117.5 136.5t171.5 51.5q226 0 305 -194q48 91 127.5 142.5t187.5 51.5q173 0 258.5 -104t85.5 -281v-733h-127v721q0 270 -235 270q-118 0 -189 -82t-71 -194v-715h-127v721q0 270 -236 270q-120 0 -190 -85t-70 -201v-705h-127z" />
<glyph unicode="n" horiz-adv-x="1206" d="M182 0v1096h99l16 -172h4q50 83 139 138.5t201 55.5q179 0 287 -108t108 -287v-723h-127v666q0 325 -288 325q-132 0 -222 -89t-90 -224v-678h-127z" />
<glyph unicode="o" horiz-adv-x="1280" d="M109 547q0 244 151.5 407.5t380.5 163.5q150 0 271.5 -75t190 -205.5t68.5 -290.5t-68.5 -290.5t-190 -205t-271.5 -74.5q-151 0 -273 74t-190.5 204.5t-68.5 291.5zM236 547q0 -103 34 -189.5t91 -141.5t129.5 -85.5t150.5 -30.5t150.5 30.5t128.5 86t90 141.5t34 189 t-33.5 189.5t-90 142t-129 86t-150.5 30.5q-79 0 -151.5 -30.5t-129 -86t-90.5 -141.5t-34 -190z" />
<glyph unicode="p" d="M182 -430v1526h101l18 -217q63 118 172 178.5t232 60.5q98 0 189 -40.5t161 -113t111.5 -180.5t41.5 -235q0 -128 -41.5 -237t-111.5 -181.5t-161 -113t-189 -40.5q-120 0 -229.5 61t-166.5 167v-635h-127zM305 547q0 -195 111.5 -321t275.5 -126q166 0 277.5 125 t111.5 324q0 197 -112 321.5t-277 124.5q-164 0 -275.5 -125.5t-111.5 -322.5z" />
<glyph unicode="q" d="M109 549q0 127 41.5 235.5t111.5 180.5t160 112.5t188 40.5q124 0 233.5 -60.5t172.5 -178.5l18 217h101v-1526h-127v637q-58 -110 -167 -170t-231 -60q-98 0 -188 41t-160 113.5t-111.5 181.5t-41.5 236zM236 547q0 -197 112 -322t277 -125q164 0 275.5 126t111.5 321 q0 197 -111.5 322.5t-275.5 125.5q-166 0 -277.5 -124.5t-111.5 -323.5z" />
<glyph unicode="r" horiz-adv-x="741" d="M182 0v1096h103l14 -178h2q27 52 68 90.5t85.5 59.5t86 30.5t80.5 9.5q29 0 69 -4v-125q-39 6 -77 6l-29 -1q-53 -3 -102.5 -27.5t-88 -61.5t-61.5 -97t-23 -134v-664h-127z" />
<glyph unicode="s" horiz-adv-x="997" d="M129 109v157q148 -166 356 -166q122 0 198.5 57.5t76.5 135.5q0 34 -14 61.5t-33 46.5t-59.5 39.5t-73 33t-93.5 34.5q-41 15 -58 21.5t-54.5 21.5t-55.5 25t-48 27.5t-45.5 32t-35.5 36.5t-29.5 44.5t-16.5 50.5t-7 60q0 124 102.5 207.5t266.5 83.5q95 0 182 -26.5 t143 -71.5v-146q-131 121 -325 121q-109 0 -175.5 -46.5t-66.5 -119.5q0 -30 14 -56.5t35.5 -45t57 -37.5t67.5 -31t78 -28q52 -18 84.5 -30t76 -31t70.5 -36t56.5 -42t46 -52t27 -63t10.5 -78q0 -136 -112 -229t-286 -93q-207 0 -360 132z" />
<glyph unicode="t" horiz-adv-x="765" d="M51 981v115h172v258h123v-258h322v-115h-322v-612q0 -161 96 -223q64 -41 156 -41q46 0 98 10v-115q-50 -10 -112 -10q-165 0 -265 97.5t-100 277.5v616h-168z" />
<glyph unicode="u" horiz-adv-x="1193" d="M170 410v686h127v-693q0 -141 79 -222t216 -81q139 0 222 82t83 224v690h127v-684q0 -195 -117 -315t-315 -120q-195 0 -308.5 119t-113.5 314z" />
<glyph unicode="v" horiz-adv-x="1056" d="M59 1096h136l333 -946h4l332 946h133l-399 -1096h-139z" />
<glyph unicode="w" horiz-adv-x="1699" d="M74 1096h131l260 -944h4l311 944h142l313 -944h4l262 944h125l-315 -1096h-144l-313 926h-6l-311 -926h-146z" />
<glyph unicode="x" horiz-adv-x="1009" d="M59 0l375 551l-371 545h146l295 -443h4l289 443h141l-365 -543l377 -553h-145l-301 451h-4l-295 -451h-146z" />
<glyph unicode="y" horiz-adv-x="1054" d="M57 1096h142l329 -885h4l332 885h135l-591 -1526h-134l191 473z" />
<glyph unicode="z" horiz-adv-x="974" d="M47 0v8l670 967h-602v121h809v-11l-666 -964h614v-121h-825z" />
<glyph unicode="{" horiz-adv-x="710" d="M88 510v119q65 9 109 31.5t66 55.5t31 66.5t9 75.5v449q0 135 92 209t246 59v-123q-108 12 -159.5 -32.5t-51.5 -131.5v-418q0 -249 -172 -299v-4q172 -50 172 -297v-415q0 -87 52.5 -131.5t160.5 -32.5v-123q-154 -15 -247 59.5t-93 208.5v447q0 41 -9 74t-30.5 66 t-66 55.5t-109.5 31.5z" />
<glyph unicode="|" horiz-adv-x="610" d="M242 -375v2269h127v-2269h-127z" />
<glyph unicode="}" horiz-adv-x="710" d="M68 -309q108 -12 160.5 32.5t52.5 131.5v415q0 247 172 297v4q-172 50 -172 299v418q0 87 -51.5 131.5t-159.5 32.5v123q154 15 246 -59t92 -209v-449q0 -42 9 -75.5t31 -66.5t66 -55.5t109 -31.5v-119q-65 -9 -109.5 -31.5t-66 -55.5t-30.5 -66t-9 -74v-447 q0 -134 -93 -208.5t-247 -59.5v123z" />
<glyph unicode="~" horiz-adv-x="1310" d="M90 623q5 79 29.5 135.5t63 86.5t81.5 43t94 13q71 0 191 -39.5t234.5 -79t170.5 -39.5q60 0 99.5 38t48.5 118h117q-5 -79 -29.5 -135.5t-63.5 -86.5t-82 -43t-94 -13q-71 0 -191.5 39.5t-235 78.5t-169.5 39q-60 0 -99 -37.5t-48 -117.5h-117z" />
<glyph unicode="&#xa1;" horiz-adv-x="585" d="M190 1419q0 44 29.5 73.5t73.5 29.5t73 -29.5t29 -73.5t-29 -73t-73 -29t-73.5 29t-29.5 73zM221 -8l19 1073h102l16 -1073h-137z" />
<glyph unicode="&#xa2;" horiz-adv-x="1099" d="M109 573q0 213 132.5 364t336.5 173v211h110v-209q150 -10 246 -72v-137q-127 94 -301 94q-75 0 -145.5 -29.5t-127 -82.5t-90.5 -134.5t-34 -177.5q0 -97 34.5 -178.5t91.5 -134t129 -81.5t150 -29q174 0 293 88v-136q-108 -60 -250 -69v-189h-111v191 q-203 23 -333.5 173.5t-130.5 364.5z" />
<glyph unicode="&#xa3;" horiz-adv-x="1196" d="M137 0v16q83 125 140.5 273.5t89.5 355.5l2 14h-181v119h199l45 297q71 475 428 475q113 0 193 -45v-135q-88 57 -193 57q-61 0 -107.5 -17.5t-87 -58.5t-68.5 -114t-44 -178l-43 -281h375v-119h-393l-5 -30q-48 -304 -165 -504h735v-125h-920z" />
<glyph unicode="&#xa4;" horiz-adv-x="1259" d="M170 1130l90 87l111 -111q123 86 264 86q142 0 256 -84l113 111l86 -91l-111 -108q88 -115 88 -258q0 -144 -88 -262l108 -105l-86 -90l-110 109q-116 -82 -256 -82q-144 0 -264 84l-111 -109l-88 88l111 111q-82 119 -82 256q0 138 82 254zM322 760q0 -128 93 -221 t220 -93q129 0 221 93t92 221q0 129 -92 221t-221 92q-128 0 -220.5 -92t-92.5 -221z" />
<glyph unicode="&#xa5;" horiz-adv-x="1329" d="M47 1522h146l473 -691h2l469 691h145l-522 -766h354v-119h-385v-158h385v-119h-385v-360h-123v360h-385v119h385v158h-385v119h352z" />
<glyph unicode="&#xa6;" horiz-adv-x="610" d="M242 -375v883h127v-883h-127zM242 1012v882h127v-882h-127z" />
<glyph unicode="&#xa7;" horiz-adv-x="1077" d="M147 -96q59 -73 155.5 -117.5t189.5 -44.5q122 0 205 68t83 174q0 30 -8.5 56t-19 45.5t-36 41t-43.5 34.5t-58.5 33.5t-64 31.5t-75.5 34q-39 17 -60 27t-60.5 31.5t-62 39t-52 46t-45.5 57.5t-27.5 68t-11.5 83q0 105 60 188.5t165 123.5q-191 111 -191 288 q0 144 108 241t288 97q161 0 291 -77v-148q-134 105 -297 105q-122 0 -192.5 -61.5t-70.5 -149.5q0 -84 56.5 -135t171.5 -101q13 -6 47.5 -21t52.5 -23t51.5 -24.5t53.5 -29t49 -32.5t46.5 -38.5t37.5 -44t31 -51.5t18.5 -59t7.5 -68q0 -105 -56 -190.5t-145 -131.5 q170 -110 170 -280q0 -154 -115 -261.5t-298 -107.5q-106 0 -196.5 36t-152.5 91v156zM283 616q0 -84 56.5 -134.5t172.5 -100.5l102 -45q86 25 143.5 90.5t57.5 159.5q0 38 -13 70.5t-33 56t-57.5 47.5t-72.5 41.5t-92 42.5q-64 -1 -116 -21.5t-83.5 -53.5t-48 -72.5 t-16.5 -80.5z" />
<glyph unicode="&#xa8;" horiz-adv-x="1097" d="M262 1419q0 37 26.5 62.5t63.5 25.5q38 0 65 -25.5t27 -62.5t-27 -62.5t-65 -25.5q-37 0 -63.5 25.5t-26.5 62.5zM659 1419q0 37 26.5 62.5t64.5 25.5t64 -25.5t26 -62.5t-26 -62.5t-64 -25.5t-64.5 25.5t-26.5 62.5z" />
<glyph unicode="&#xa9;" horiz-adv-x="1853" d="M133 760q0 159 62 304.5t167.5 252t253 170t310.5 63.5q162 0 309.5 -63.5t253.5 -170t168.5 -252t62.5 -304.5q0 -211 -105.5 -392.5t-288.5 -289t-400 -107.5q-163 0 -310.5 63.5t-253 170t-167.5 252t-62 303.5zM252 760q0 -180 88.5 -334.5t244 -246t341.5 -91.5 q185 0 341 91.5t245.5 246t89.5 334.5t-89.5 335.5t-245.5 248t-341 92.5t-341 -92.5t-244.5 -248t-88.5 -335.5zM528 762q0 127 61 229.5t157.5 156.5t205.5 54q133 0 219 -49v-127q-98 64 -206 64q-123 0 -219.5 -93t-96.5 -235q0 -94 46.5 -170.5t118.5 -117t151 -40.5 q112 0 206 64v-125q-82 -51 -219 -51q-109 0 -205.5 53.5t-157.5 156t-61 230.5z" />
<glyph unicode="&#xaa;" horiz-adv-x="1116" d="M123 1083q0 102 33 189.5t88.5 146t127 91t148.5 32.5q99 0 185 -48t137 -140l16 168h94v-875h-94l-16 168q-51 -91 -137 -138.5t-185 -47.5q-103 0 -193 55t-147 160.5t-57 238.5zM242 1083q0 -150 85.5 -246t213.5 -96q126 0 211.5 97t85.5 247t-85.5 247.5 t-211.5 97.5q-128 0 -213.5 -97t-85.5 -250z" />
<glyph unicode="&#xab;" horiz-adv-x="1277" d="M150 498v100l507 422v-150l-393 -323l393 -322v-149zM590 498v100l508 422v-150l-393 -323l393 -322v-149z" />
<glyph unicode="&#xac;" horiz-adv-x="1310" d="M80 698v123h1151v-639h-127v516h-1024z" />
<glyph unicode="&#xad;" horiz-adv-x="718" d="M109 592v125h501v-125h-501z" />
<glyph unicode="&#xae;" horiz-adv-x="1853" d="M133 760q0 159 62 304.5t167.5 252t253 170t310.5 63.5q162 0 309.5 -63.5t253.5 -170t168.5 -252t62.5 -304.5q0 -211 -105.5 -392.5t-288.5 -289t-400 -107.5q-163 0 -310.5 63.5t-253 170t-167.5 252t-62 303.5zM252 760q0 -180 88.5 -334.5t244 -246t341.5 -91.5 q185 0 341 91.5t245.5 246t89.5 334.5t-89.5 335.5t-245.5 248t-341 92.5t-341 -92.5t-244.5 -248t-88.5 -335.5zM688 338v866h205q154 0 235.5 -73t81.5 -185t-83.5 -178.5t-194.5 -73.5l328 -356h-142l-311 350h-12v-350h-107zM795 782h75q110 0 170 41.5t60 122.5 q0 156 -234 156h-71v-320z" />
<glyph unicode="&#xaf;" horiz-adv-x="1095" d="M223 1364v111h654v-111h-654z" />
<glyph unicode="&#xb0;" horiz-adv-x="833" d="M82 1217q0 141 97 237t237 96q141 0 238.5 -96t97.5 -237t-97.5 -237.5t-238.5 -96.5q-140 0 -237 96.5t-97 237.5zM178 1217q0 -101 69.5 -171.5t168.5 -70.5q101 0 170 70t69 172q0 100 -69 170.5t-170 70.5q-98 0 -168 -70.5t-70 -170.5z" />
<glyph unicode="&#xb1;" horiz-adv-x="1310" d="M80 0v123h1151v-123h-1151zM80 707v122h508v469h127v-469h516v-122h-516v-484h-127v484h-508z" />
<glyph unicode="&#xb2;" horiz-adv-x="735" d="M41 641v10q80 87 119.5 131t95 106.5t80 92t57.5 72.5t45.5 65.5t26.5 52.5t18 52t4 47q0 62 -42.5 104.5t-129.5 42.5q-64 0 -125 -27.5t-98 -70.5v127q42 38 104.5 61t127.5 23q121 0 197.5 -68t76.5 -192q0 -53 -17 -102.5t-64 -116t-101 -128.5t-156 -173h361v-109 h-580z" />
<glyph unicode="&#xb3;" horiz-adv-x="718" d="M104 723v131q43 -53 107 -85t137 -32q79 0 136 41.5t57 108.5q0 76 -67 114.5t-173 38.5h-102v105h102q103 0 152 41.5t49 101.5q0 54 -41.5 91t-114.5 38q-61 1 -117 -24.5t-96 -71.5v129q91 80 225 80q116 0 189.5 -66t73.5 -164q0 -133 -134 -198v-2q78 -30 122 -79 t44 -134q0 -104 -80.5 -179t-218.5 -75q-142 0 -250 90z" />
<glyph unicode="&#xb4;" horiz-adv-x="1097" d="M367 1276l241 336h150l-275 -336h-116z" />
<glyph unicode="&#xb5;" horiz-adv-x="1218" d="M182 -430v1526h127v-709q0 -125 83.5 -199.5t217.5 -74.5q118 0 208.5 79.5t90.5 190.5v713h127v-1096h-98l-16 176q-38 -78 -130 -131t-217 -53q-71 0 -151.5 35t-138.5 106l32 -563h-135z" />
<glyph unicode="&#xb6;" horiz-adv-x="1269" d="M61 1012q0 159 74 276t199 175.5t284 58.5h426v-1952h-126v1829h-138v-1829h-127v936h-59q-110 0 -206.5 34t-169 97t-115 160t-42.5 215z" />
<glyph unicode="&#xb7;" horiz-adv-x="481" d="M139 762q0 44 29.5 73t73.5 29t73 -29t29 -73t-29 -73.5t-73 -29.5t-73.5 29.5t-29.5 73.5z" />
<glyph unicode="&#xb8;" horiz-adv-x="1097" d="M367 -342q42 52 65.5 85t51 82t39.5 101.5t12 112.5h114q0 -119 -35.5 -209.5t-101.5 -171.5h-145z" />
<glyph unicode="&#xb9;" horiz-adv-x="653" d="M123 1284v117l309 131h21v-891h-113v733z" />
<glyph unicode="&#xba;" horiz-adv-x="1110" d="M127 1083q0 197 121.5 328t306.5 131q184 0 306 -131t122 -328q0 -195 -122 -324.5t-306 -129.5q-186 0 -307 128.5t-121 325.5zM244 1083q0 -156 92 -249t219 -93t218 93t91 249q0 158 -91.5 252.5t-217.5 94.5q-127 0 -219 -95t-92 -252z" />
<glyph unicode="&#xbb;" horiz-adv-x="1277" d="M299 76v149l393 324l-393 321v150l508 -422v-100zM739 76v149l394 324l-394 321v150l508 -422v-100z" />
<glyph unicode="&#xbc;" horiz-adv-x="1654" d="M121 1284v117l309 131h21v-891h-113v733zM287 0l1001 1522h129l-1001 -1522h-129zM897 211v74l457 596h92v-566h131v-104h-131v-211h-109v211h-440zM1034 315h303v390z" />
<glyph unicode="&#xbd;" horiz-adv-x="1646" d="M82 1284v117l309 131h21v-891h-113v733zM190 0l1002 1522h129l-1002 -1522h-129zM981 0v10q80 87 119.5 131t95 106.5t80 92t57.5 72.5t45.5 65.5t26.5 52.5t18 52t4 47q0 62 -42.5 104.5t-129.5 42.5q-64 0 -125 -27.5t-98 -70.5v127q42 38 104.5 61t127.5 23 q121 0 197.5 -68t76.5 -192q0 -53 -17 -102.5t-64 -116t-101 -128.5t-156 -173h361v-109h-580z" />
<glyph unicode="&#xbe;" horiz-adv-x="1689" d="M104 723v131q43 -53 107 -85t137 -32q79 0 136 41.5t57 108.5q0 76 -67 114.5t-173 38.5h-102v105h102q103 0 152 41.5t49 101.5q0 54 -41.5 91t-114.5 38q-61 1 -117 -24.5t-96 -71.5v129q91 80 225 80q116 0 189.5 -66t73.5 -164q0 -133 -134 -198v-2q78 -30 122 -79 t44 -134q0 -104 -80.5 -179t-218.5 -75q-142 0 -250 90zM348 0l1002 1522h129l-1002 -1522h-129zM932 211v74l457 596h92v-566h131v-104h-131v-211h-109v211h-440zM1069 315h303v390z" />
<glyph unicode="&#xbf;" horiz-adv-x="1001" d="M102 397q0 56 19.5 114.5t39.5 100t82 120t94.5 115.5t130.5 146q10 11 15 17h152q-35 -39 -89 -99.5t-80.5 -91t-66.5 -77.5t-59 -74.5t-43 -65.5t-35 -66.5t-18.5 -62t-7.5 -67.5q0 -137 85.5 -221.5t217.5 -84.5q99 0 196.5 54.5t165.5 138.5v-164 q-64 -67 -162.5 -112.5t-208.5 -45.5q-183 0 -305.5 119t-122.5 307zM442 1427q0 44 29.5 73.5t73.5 29.5t73 -29.5t29 -73.5t-29 -73t-73 -29t-73.5 29t-29.5 73z" />
<glyph unicode="&#xc0;" horiz-adv-x="1431" d="M35 0l610 1522h141l611 -1522h-140l-198 502h-688l-199 -502h-137zM412 2038h149l242 -336h-117zM420 627h588l-293 741z" />
<glyph unicode="&#xc1;" horiz-adv-x="1431" d="M35 0l610 1522h141l611 -1522h-140l-198 502h-688l-199 -502h-137zM420 627h588l-293 741zM627 1702l241 336h150l-275 -336h-116z" />
<glyph unicode="&#xc2;" horiz-adv-x="1431" d="M35 0l610 1522h141l611 -1522h-140l-198 502h-688l-199 -502h-137zM399 1702l267 336h98l268 -336h-137l-180 237l-183 -237h-133zM420 627h588l-293 741z" />
<glyph unicode="&#xc3;" horiz-adv-x="1431" d="M35 0l610 1522h141l611 -1522h-140l-198 502h-688l-199 -502h-137zM362 1737q-3 59 14 103.5t47.5 70t66 37.5t75.5 12q49 0 93 -20t70 -43.5t62 -43.5t72 -20q53 0 79 37t24 84h104q3 -59 -14 -103.5t-47.5 -70t-66 -37.5t-75.5 -12q-49 0 -93 20t-70 43.5t-62 43.5 t-72 20q-53 0 -78.5 -37t-23.5 -84h-105zM420 627h588l-293 741z" />
<glyph unicode="&#xc4;" horiz-adv-x="1431" d="M35 0l610 1522h141l611 -1522h-140l-198 502h-688l-199 -502h-137zM420 627h588l-293 741zM426 1845q0 37 26.5 62.5t63.5 25.5q38 0 65 -25.5t27 -62.5t-27 -62.5t-65 -25.5q-37 0 -63.5 25.5t-26.5 62.5zM823 1845q0 37 26 62.5t64 25.5t64.5 -25.5t26.5 -62.5 t-26.5 -62.5t-64.5 -25.5t-64 25.5t-26 62.5z" />
<glyph unicode="&#xc5;" horiz-adv-x="1431" d="M35 0l610 1522h141l611 -1522h-140l-198 502h-688l-199 -502h-137zM420 627h588l-293 741zM512 1845q0 81 59 137t144 56q81 0 139.5 -56t58.5 -137q0 -77 -59 -132.5t-139 -55.5q-84 0 -143.5 55.5t-59.5 132.5zM604 1845q0 -44 32 -74t79 -30t77.5 29.5t30.5 74.5 q0 44 -31 75.5t-77 31.5q-47 0 -79 -32t-32 -75z" />
<glyph unicode="&#xc6;" horiz-adv-x="2050" d="M12 0l1080 1522h809v-123h-654v-559h611v-123h-611v-594h654v-123h-781v506h-594l-356 -506h-158zM612 629h508v725z" />
<glyph unicode="&#xc7;" horiz-adv-x="1361" d="M127 764q0 177 62 327.5t165.5 249.5t237 154t278.5 55q229 0 396 -102v-143q-99 60 -191.5 90t-208.5 30q-89 0 -176 -27.5t-164.5 -84t-137 -134.5t-94 -186t-34.5 -231q0 -152 53 -280t139.5 -210.5t194 -128t219.5 -45.5q116 0 208.5 30.5t191.5 90.5v-145 q-164 -100 -387 -103q-15 -171 -134 -313h-145q73 88 113 159t51 163q-129 19 -244 81.5t-202.5 161t-139 238.5t-51.5 303z" />
<glyph unicode="&#xc8;" horiz-adv-x="1155" d="M225 0v1522h781v-123h-654v-559h611v-123h-611v-594h654v-123h-781zM311 2038l275 -336h116l-241 336h-150z" />
<glyph unicode="&#xc9;" horiz-adv-x="1155" d="M225 0v1522h781v-123h-654v-559h611v-123h-611v-594h654v-123h-781zM526 1702l242 336h150l-275 -336h-117z" />
<glyph unicode="&#xca;" horiz-adv-x="1155" d="M225 0v1522h781v-123h-654v-559h611v-123h-611v-594h654v-123h-781zM299 1702l266 336h99l268 -336h-137l-181 237l-182 -237h-133z" />
<glyph unicode="&#xcb;" horiz-adv-x="1155" d="M225 0v1522h781v-123h-654v-559h611v-123h-611v-594h654v-123h-781zM326 1845q0 37 26.5 62.5t63.5 25.5q38 0 65 -25.5t27 -62.5t-27 -62.5t-65 -25.5q-37 0 -63.5 25.5t-26.5 62.5zM723 1845q0 37 26 62.5t64 25.5t64 -25.5t26 -62.5t-26 -62.5t-64 -25.5t-64 25.5 t-26 62.5z" />
<glyph unicode="&#xcc;" horiz-adv-x="577" d="M-14 2038l274 -336h117l-242 336h-149zM225 0v1522h127v-1522h-127z" />
<glyph unicode="&#xcd;" horiz-adv-x="577" d="M201 1702l241 336h150l-275 -336h-116zM225 0v1522h127v-1522h-127z" />
<glyph unicode="&#xce;" horiz-adv-x="577" d="M-27 1702l267 336h98l268 -336h-137l-180 237l-183 -237h-133zM225 0v1522h127v-1522h-127z" />
<glyph unicode="&#xcf;" horiz-adv-x="577" d="M0 1845q0 37 26.5 62.5t63.5 25.5q38 0 65 -25.5t27 -62.5t-27 -62.5t-65 -25.5q-37 0 -63.5 25.5t-26.5 62.5zM225 0v1522h127v-1522h-127zM397 1845q0 37 26 62.5t64 25.5t64.5 -25.5t26.5 -62.5t-26.5 -62.5t-64.5 -25.5t-64 25.5t-26 62.5z" />
<glyph unicode="&#xd0;" horiz-adv-x="1552" d="M82 713v106h211v703h332q365 0 582.5 -208t217.5 -552q0 -228 -100 -401t-281.5 -267t-418.5 -94h-332v713h-211zM420 123h211q193 0 341 73t234 219t86 345q0 151 -49.5 273t-137 201.5t-207.5 122t-263 42.5h-215v-580h434v-106h-434v-590z" />
<glyph unicode="&#xd1;" horiz-adv-x="1619" d="M225 0v1522h135l916 -1305h4q-12 319 -12 961v344h127v-1522h-115l-932 1321h-4q8 -262 8 -977v-344h-127zM457 1737q-3 59 13.5 103.5t47 70t66 37.5t75.5 12q49 0 93 -20t70 -43.5t62 -43.5t72 -20q53 0 79 37t24 84h104q3 -59 -13.5 -103.5t-47 -70t-66 -37.5 t-75.5 -12q-49 0 -93 20t-70 43.5t-62 43.5t-72 20q-53 0 -79 -37t-24 -84h-104z" />
<glyph unicode="&#xd2;" horiz-adv-x="1740" d="M127 760q0 220 95.5 400.5t266.5 285t383 104.5q210 0 380.5 -104.5t266 -285t95.5 -400.5q0 -165 -56 -311t-154 -251t-236 -166t-296 -61q-213 0 -383.5 103t-266 283.5t-95.5 402.5zM260 760q0 -123 33.5 -230.5t91.5 -186t135.5 -135t167 -84.5t184.5 -28 q118 0 227.5 46t194.5 128.5t136 210t51 279.5q0 153 -51 280.5t-136.5 210.5t-194.5 128.5t-227 45.5q-120 0 -230 -45.5t-195.5 -128.5t-136 -210.5t-50.5 -280.5zM516 2038l275 -336h116l-241 336h-150z" />
<glyph unicode="&#xd3;" horiz-adv-x="1740" d="M127 760q0 220 95.5 400.5t266.5 285t383 104.5q210 0 380.5 -104.5t266 -285t95.5 -400.5q0 -165 -56 -311t-154 -251t-236 -166t-296 -61q-213 0 -383.5 103t-266 283.5t-95.5 402.5zM260 760q0 -123 33.5 -230.5t91.5 -186t135.5 -135t167 -84.5t184.5 -28 q118 0 227.5 46t194.5 128.5t136 210t51 279.5q0 153 -51 280.5t-136.5 210.5t-194.5 128.5t-227 45.5q-120 0 -230 -45.5t-195.5 -128.5t-136 -210.5t-50.5 -280.5zM784 1702l242 336h150l-275 -336h-117z" />
<glyph unicode="&#xd4;" horiz-adv-x="1740" d="M127 760q0 220 95.5 400.5t266.5 285t383 104.5q210 0 380.5 -104.5t266 -285t95.5 -400.5q0 -165 -56 -311t-154 -251t-236 -166t-296 -61q-213 0 -383.5 103t-266 283.5t-95.5 402.5zM260 760q0 -123 33.5 -230.5t91.5 -186t135.5 -135t167 -84.5t184.5 -28 q118 0 227.5 46t194.5 128.5t136 210t51 279.5q0 153 -51 280.5t-136.5 210.5t-194.5 128.5t-227 45.5q-120 0 -230 -45.5t-195.5 -128.5t-136 -210.5t-50.5 -280.5zM559 1718l266 336h99l268 -336h-137l-181 238l-182 -238h-133z" />
<glyph unicode="&#xd5;" horiz-adv-x="1740" d="M127 760q0 220 95.5 400.5t266.5 285t383 104.5q210 0 380.5 -104.5t266 -285t95.5 -400.5q0 -165 -56 -311t-154 -251t-236 -166t-296 -61q-213 0 -383.5 103t-266 283.5t-95.5 402.5zM260 760q0 -123 33.5 -230.5t91.5 -186t135.5 -135t167 -84.5t184.5 -28 q118 0 227.5 46t194.5 128.5t136 210t51 279.5q0 153 -51 280.5t-136.5 210.5t-194.5 128.5t-227 45.5q-120 0 -230 -45.5t-195.5 -128.5t-136 -210.5t-50.5 -280.5zM508 1737q-3 59 14 103.5t47.5 70t66 37.5t75.5 12q49 0 93 -20t70 -43.5t62 -43.5t72 -20q53 0 78.5 37 t23.5 84h104q3 -59 -13.5 -103.5t-47 -70t-66 -37.5t-75.5 -12q-49 0 -93 20t-70 43.5t-62 43.5t-72 20q-53 0 -79 -37t-24 -84h-104z" />
<glyph unicode="&#xd6;" horiz-adv-x="1740" d="M127 760q0 220 95.5 400.5t266.5 285t383 104.5q210 0 380.5 -104.5t266 -285t95.5 -400.5q0 -165 -56 -311t-154 -251t-236 -166t-296 -61q-213 0 -383.5 103t-266 283.5t-95.5 402.5zM260 760q0 -123 33.5 -230.5t91.5 -186t135.5 -135t167 -84.5t184.5 -28 q118 0 227.5 46t194.5 128.5t136 210t51 279.5q0 153 -51 280.5t-136.5 210.5t-194.5 128.5t-227 45.5q-120 0 -230 -45.5t-195.5 -128.5t-136 -210.5t-50.5 -280.5zM586 1884q0 37 26.5 62.5t63.5 25.5q38 0 65 -25.5t27 -62.5t-27 -62.5t-65 -25.5q-37 0 -63.5 25.5 t-26.5 62.5zM983 1884q0 37 26 62.5t64 25.5t64 -25.5t26 -62.5t-26 -62.5t-64 -25.5t-64 25.5t-26 62.5z" />
<glyph unicode="&#xd7;" horiz-adv-x="1310" d="M162 350l409 410l-409 409l86 86l407 -409l408 409l86 -86l-410 -409l410 -410l-84 -84l-410 410l-409 -410z" />
<glyph unicode="&#xd8;" horiz-adv-x="1753" d="M127 57l180 189q-168 217 -168 514q0 220 95.5 400.5t267 285t383.5 104.5q288 0 489 -188l162 170l74 -74l-164 -172q87 -104 133.5 -238.5t46.5 -287.5q0 -165 -56 -311t-153.5 -251t-235.5 -166t-296 -61q-149 0 -278.5 52t-227.5 147l-174 -182zM272 760 q0 -245 127 -418l887 928q-83 75 -187 115t-214 40q-120 0 -230.5 -45.5t-195.5 -128.5t-136 -210.5t-51 -280.5zM467 262q84 -81 192 -123.5t226 -42.5t227 46t194 128.5t136 210t51 279.5q0 254 -137 432z" />
<glyph unicode="&#xd9;" horiz-adv-x="1515" d="M203 563v959h127v-971q0 -209 113.5 -332t306.5 -123q198 0 317 124t119 335v967h127v-957q0 -267 -154 -430.5t-409 -163.5q-251 0 -399 163t-148 429zM455 2038l274 -336h117l-242 336h-149z" />
<glyph unicode="&#xda;" horiz-adv-x="1515" d="M203 563v959h127v-971q0 -209 113.5 -332t306.5 -123q198 0 317 124t119 335v967h127v-957q0 -267 -154 -430.5t-409 -163.5q-251 0 -399 163t-148 429zM670 1702l241 336h150l-275 -336h-116z" />
<glyph unicode="&#xdb;" horiz-adv-x="1515" d="M203 563v959h127v-971q0 -209 113.5 -332t306.5 -123q198 0 317 124t119 335v967h127v-957q0 -267 -154 -430.5t-409 -163.5q-251 0 -399 163t-148 429zM442 1702l267 336h98l268 -336h-137l-180 237l-183 -237h-133z" />
<glyph unicode="&#xdc;" horiz-adv-x="1515" d="M203 563v959h127v-971q0 -209 113.5 -332t306.5 -123q198 0 317 124t119 335v967h127v-957q0 -267 -154 -430.5t-409 -163.5q-251 0 -399 163t-148 429zM469 1845q0 37 26.5 62.5t63.5 25.5q38 0 65 -25.5t27 -62.5t-27 -62.5t-65 -25.5q-37 0 -63.5 25.5t-26.5 62.5z M866 1845q0 37 26 62.5t64 25.5t64.5 -25.5t26.5 -62.5t-26.5 -62.5t-64.5 -25.5t-64 25.5t-26 62.5z" />
<glyph unicode="&#xdd;" horiz-adv-x="1290" d="M29 1522h145l473 -742h2l469 742h146l-553 -863v-659h-123v657zM557 1702l242 336h149l-274 -336h-117z" />
<glyph unicode="&#xde;" horiz-adv-x="1226" d="M225 0v1522h127v-260h264q117 0 216.5 -31t174 -89.5t116.5 -149.5t42 -206q0 -117 -42 -211t-116.5 -154.5t-174 -93t-216.5 -32.5h-264v-295h-127zM352 418h271q187 0 298 101t111 265t-109 259.5t-298 95.5h-273v-721z" />
<glyph unicode="&#xdf;" horiz-adv-x="1265" d="M182 0v1174q0 209 118.5 338.5t315.5 129.5q184 0 294 -109t110 -265q0 -112 -57.5 -202t-151.5 -130v-2q74 -15 137.5 -48t117.5 -86t85 -134.5t31 -182.5q0 -95 -28 -175.5t-77 -138t-116.5 -98t-146 -60t-165.5 -19.5q-78 0 -155 18v123q74 -18 157 -18q82 0 154 23 t128.5 68t89 118.5t32.5 167.5q0 173 -111 265.5t-299 92.5h-119v117h52q145 0 230 77.5t85 204.5q0 120 -79.5 196.5t-203.5 76.5q-135 0 -218 -90t-83 -250v-1182h-127z" />
<glyph unicode="&#xe0;" d="M109 547q0 128 41.5 237t111.5 181t160 112.5t188 40.5q124 0 233.5 -60.5t172.5 -178.5l18 217h101v-1096h-101l-18 217q-63 -118 -173 -179t-233 -61q-98 0 -188 41t-160 113t-111.5 180.5t-41.5 235.5zM236 547q0 -197 112 -322t277 -125q164 0 275.5 126t111.5 323 q0 195 -111.5 320.5t-275.5 125.5q-166 0 -277.5 -124.5t-111.5 -323.5zM365 1591l274 -336h117l-242 336h-149z" />
<glyph unicode="&#xe1;" d="M109 547q0 128 41.5 237t111.5 181t160 112.5t188 40.5q124 0 233.5 -60.5t172.5 -178.5l18 217h101v-1096h-101l-18 217q-63 -118 -173 -179t-233 -61q-98 0 -188 41t-160 113t-111.5 180.5t-41.5 235.5zM236 547q0 -197 112 -322t277 -125q164 0 275.5 126t111.5 323 q0 195 -111.5 320.5t-275.5 125.5q-166 0 -277.5 -124.5t-111.5 -323.5zM580 1255l241 336h150l-275 -336h-116z" />
<glyph unicode="&#xe2;" d="M109 547q0 128 41.5 237t111.5 181t160 112.5t188 40.5q124 0 233.5 -60.5t172.5 -178.5l18 217h101v-1096h-101l-18 217q-63 -118 -173 -179t-233 -61q-98 0 -188 41t-160 113t-111.5 180.5t-41.5 235.5zM236 547q0 -197 112 -322t277 -125q164 0 275.5 126t111.5 323 q0 195 -111.5 320.5t-275.5 125.5q-166 0 -277.5 -124.5t-111.5 -323.5zM352 1255l266 336h99l268 -336h-137l-180 238l-183 -238h-133z" />
<glyph unicode="&#xe3;" d="M109 547q0 128 41.5 237t111.5 181t160 112.5t188 40.5q124 0 233.5 -60.5t172.5 -178.5l18 217h101v-1096h-101l-18 217q-63 -118 -173 -179t-233 -61q-98 0 -188 41t-160 113t-111.5 180.5t-41.5 235.5zM236 547q0 -197 112 -322t277 -125q164 0 275.5 126t111.5 323 q0 195 -111.5 320.5t-275.5 125.5q-166 0 -277.5 -124.5t-111.5 -323.5zM315 1290q-3 59 14 103.5t47.5 70t66 37.5t75.5 12q49 0 93 -20t70 -43.5t62 -43.5t72 -20q53 0 79 37t24 84h104q3 -59 -14 -103.5t-47.5 -70t-66 -37.5t-75.5 -12q-49 0 -93 20t-70 43.5t-62 43.5 t-72 20q-53 0 -78.5 -37t-23.5 -84h-105z" />
<glyph unicode="&#xe4;" d="M109 547q0 128 41.5 237t111.5 181t160 112.5t188 40.5q124 0 233.5 -60.5t172.5 -178.5l18 217h101v-1096h-101l-18 217q-63 -118 -173 -179t-233 -61q-98 0 -188 41t-160 113t-111.5 180.5t-41.5 235.5zM236 547q0 -197 112 -322t277 -125q164 0 275.5 126t111.5 323 q0 195 -111.5 320.5t-275.5 125.5q-166 0 -277.5 -124.5t-111.5 -323.5zM379 1399q0 37 26.5 62.5t63.5 25.5q38 0 65 -25.5t27 -62.5t-27 -62.5t-65 -25.5q-37 0 -63.5 25.5t-26.5 62.5zM776 1399q0 37 26 62.5t64 25.5t64 -25.5t26 -62.5t-26 -62.5t-64 -25.5t-64 25.5 t-26 62.5z" />
<glyph unicode="&#xe5;" d="M109 547q0 128 41.5 237t111.5 181t160 112.5t188 40.5q124 0 233.5 -60.5t172.5 -178.5l18 217h101v-1096h-101l-18 217q-63 -118 -173 -179t-233 -61q-98 0 -188 41t-160 113t-111.5 180.5t-41.5 235.5zM236 547q0 -197 112 -322t277 -125q164 0 275.5 126t111.5 323 q0 195 -111.5 320.5t-275.5 125.5q-166 0 -277.5 -124.5t-111.5 -323.5zM465 1399q0 81 59 136.5t144 55.5q81 0 139.5 -55.5t58.5 -136.5q0 -78 -59 -133.5t-139 -55.5q-84 0 -143.5 56t-59.5 133zM557 1399q0 -44 32 -74.5t79 -30.5t77.5 30t30.5 75q0 44 -31 75t-77 31 q-47 0 -79 -31.5t-32 -74.5z" />
<glyph unicode="&#xe6;" horiz-adv-x="1947" d="M104 315q0 97 43 169t135 120t237.5 54t350.5 -29v55q0 130 -84.5 220.5t-240.5 90.5q-99 0 -190.5 -38.5t-147.5 -96.5v141q59 50 151 83.5t191 33.5q151 0 258 -73t143 -177q46 96 158.5 173t255.5 77q98 0 182.5 -36t149.5 -103t102 -173t37 -237q0 -33 -4 -69h-844 q8 -103 44 -181.5t91.5 -125t122.5 -70t144 -23.5q97 0 199.5 36.5t187.5 119.5v-152q-78 -59 -180.5 -93t-209.5 -34q-151 0 -270 70.5t-184 198.5q-54 -120 -169 -194.5t-263 -74.5q-178 0 -287 101t-109 237zM231 317q0 -90 76.5 -153.5t196.5 -63.5q66 0 129.5 22 t117 64t86.5 111.5t33 155.5v63q-222 43 -364 26.5t-208.5 -73.5t-66.5 -152zM989 614h721q-2 96 -32.5 171t-79.5 120t-108.5 67.5t-125.5 22.5q-148 0 -253 -105t-122 -276z" />
<glyph unicode="&#xe7;" horiz-adv-x="1054" d="M109 549q0 158 69.5 288t193.5 205.5t277 75.5q182 0 297 -78v-143q-68 53 -139 75.5t-162 22.5q-78 0 -151.5 -31t-131 -87t-92 -141.5t-34.5 -186.5q0 -103 34.5 -189t92.5 -142t131.5 -87t152.5 -31q180 0 299 93v-142q-119 -71 -280 -74q-15 -170 -136 -319h-145 q37 46 59 75.5t47.5 72t40 87t19.5 93.5q-196 35 -319 191t-123 372z" />
<glyph unicode="&#xe8;" horiz-adv-x="1196" d="M109 547q0 128 41.5 237t111.5 181t161 112.5t189 40.5t182.5 -36t149.5 -103t102 -173t37 -237q0 -33 -4 -69h-841q7 -127 64 -219t143.5 -136.5t191.5 -44.5q224 0 387 160v-149q-159 -134 -389 -134q-151 0 -270 69t-187.5 199.5t-68.5 301.5zM240 614h718 q-2 96 -32 171t-78 119.5t-105 67.5t-118 23q-158 0 -263.5 -110.5t-121.5 -270.5zM319 1612l275 -336h117l-242 336h-150z" />
<glyph unicode="&#xe9;" horiz-adv-x="1196" d="M109 547q0 128 41.5 237t111.5 181t161 112.5t189 40.5t182.5 -36t149.5 -103t102 -173t37 -237q0 -33 -4 -69h-841q7 -127 64 -219t143.5 -136.5t191.5 -44.5q224 0 387 160v-149q-159 -134 -389 -134q-151 0 -270 69t-187.5 199.5t-68.5 301.5zM240 614h718 q-2 96 -32 171t-78 119.5t-105 67.5t-118 23q-158 0 -263.5 -110.5t-121.5 -270.5zM535 1276l241 336h150l-275 -336h-116z" />
<glyph unicode="&#xea;" horiz-adv-x="1196" d="M109 547q0 128 41.5 237t111.5 181t161 112.5t189 40.5t182.5 -36t149.5 -103t102 -173t37 -237q0 -33 -4 -69h-841q7 -127 64 -219t143.5 -136.5t191.5 -44.5q224 0 387 160v-149q-159 -134 -389 -134q-151 0 -270 69t-187.5 199.5t-68.5 301.5zM240 614h718 q-2 96 -32 171t-78 119.5t-105 67.5t-118 23q-158 0 -263.5 -110.5t-121.5 -270.5zM307 1276l266 336h99l268 -336h-137l-180 237l-183 -237h-133z" />
<glyph unicode="&#xeb;" horiz-adv-x="1196" d="M109 547q0 128 41.5 237t111.5 181t161 112.5t189 40.5t182.5 -36t149.5 -103t102 -173t37 -237q0 -33 -4 -69h-841q7 -127 64 -219t143.5 -136.5t191.5 -44.5q224 0 387 160v-149q-159 -134 -389 -134q-151 0 -270 69t-187.5 199.5t-68.5 301.5zM240 614h718 q-2 96 -32 171t-78 119.5t-105 67.5t-118 23q-158 0 -263.5 -110.5t-121.5 -270.5zM334 1419q0 37 26.5 62.5t63.5 25.5q38 0 65 -25.5t27 -62.5t-27 -62.5t-65 -25.5q-37 0 -63.5 25.5t-26.5 62.5zM731 1419q0 37 26 62.5t64 25.5t64 -25.5t26 -62.5t-26 -62.5t-64 -25.5 t-64 25.5t-26 62.5z" />
<glyph unicode="&#xec;" horiz-adv-x="520" d="M-43 1612l274 -336h117l-242 336h-149zM197 0v1096h127v-1096h-127z" />
<glyph unicode="&#xed;" horiz-adv-x="520" d="M172 1276l242 336h149l-274 -336h-117zM197 0v1096h127v-1096h-127z" />
<glyph unicode="&#xee;" horiz-adv-x="520" d="M-55 1276l266 336h98l269 -336h-138l-180 237l-182 -237h-133zM197 0v1096h127v-1096h-127z" />
<glyph unicode="&#xef;" horiz-adv-x="520" d="M-29 1419q0 37 26.5 62.5t63.5 25.5q38 0 65.5 -25.5t27.5 -62.5t-27.5 -62.5t-65.5 -25.5q-37 0 -63.5 25.5t-26.5 62.5zM197 0v1096h127v-1096h-127zM369 1419q0 37 26 62.5t64 25.5t64 -25.5t26 -62.5t-26 -62.5t-64 -25.5t-64 25.5t-26 62.5z" />
<glyph unicode="&#xf0;" horiz-adv-x="1280" d="M109 547q0 243 150.5 407t375.5 164q174 0 309 -135l4 2q-25 63 -95 166.5t-175 226.5l-203 -108l-43 78l186 100q-88 98 -176 186h170q78 -86 115 -129l205 111l43 -78l-191 -102q191 -230 289 -437t98 -428q0 -260 -150 -427t-380 -167q-151 0 -273 74t-190.5 204.5 t-68.5 291.5zM236 547q0 -103 34 -189.5t91 -141.5t129.5 -85.5t150.5 -30.5q62 0 121 19.5t110 58t89.5 92.5t60.5 128t22 159q0 100 -34 183.5t-90 138.5t-128.5 85.5t-150.5 30.5q-79 0 -151.5 -30.5t-129 -86t-90.5 -141.5t-34 -190z" />
<glyph unicode="&#xf1;" horiz-adv-x="1206" d="M182 0v1096h99l16 -172h4q50 83 139 138.5t201 55.5q179 0 287 -108t108 -287v-723h-127v666q0 325 -288 325q-132 0 -222 -89t-90 -224v-678h-127zM268 1311q-3 59 14 103.5t47.5 70t66 37.5t75.5 12q49 0 93 -20t70 -43.5t62 -43.5t72 -20q53 0 78.5 37t23.5 84h105 q3 -59 -14 -103.5t-47.5 -70t-66 -37.5t-75.5 -12q-49 0 -93 20t-70 43.5t-62 43.5t-72 20q-53 0 -78.5 -37t-23.5 -84h-105z" />
<glyph unicode="&#xf2;" horiz-adv-x="1280" d="M109 547q0 244 151.5 407.5t380.5 163.5q150 0 271.5 -75t190 -205.5t68.5 -290.5t-68.5 -290.5t-190 -205t-271.5 -74.5q-151 0 -273 74t-190.5 204.5t-68.5 291.5zM236 547q0 -103 34 -189.5t91 -141.5t129.5 -85.5t150.5 -30.5t150.5 30.5t128.5 86t90 141.5t34 189 t-33.5 189.5t-90 142t-129 86t-150.5 30.5q-79 0 -151.5 -30.5t-129 -86t-90.5 -141.5t-34 -190zM432 1612l275 -336h116l-241 336h-150z" />
<glyph unicode="&#xf3;" horiz-adv-x="1280" d="M109 547q0 244 151.5 407.5t380.5 163.5q150 0 271.5 -75t190 -205.5t68.5 -290.5t-68.5 -290.5t-190 -205t-271.5 -74.5q-151 0 -273 74t-190.5 204.5t-68.5 291.5zM236 547q0 -103 34 -189.5t91 -141.5t129.5 -85.5t150.5 -30.5t150.5 30.5t128.5 86t90 141.5t34 189 t-33.5 189.5t-90 142t-129 86t-150.5 30.5q-79 0 -151.5 -30.5t-129 -86t-90.5 -141.5t-34 -190zM457 1276l241 336h150l-275 -336h-116z" />
<glyph unicode="&#xf4;" horiz-adv-x="1280" d="M109 547q0 244 151.5 407.5t380.5 163.5q150 0 271.5 -75t190 -205.5t68.5 -290.5t-68.5 -290.5t-190 -205t-271.5 -74.5q-151 0 -273 74t-190.5 204.5t-68.5 291.5zM236 547q0 -103 34 -189.5t91 -141.5t129.5 -85.5t150.5 -30.5t150.5 30.5t128.5 86t90 141.5t34 189 t-33.5 189.5t-90 142t-129 86t-150.5 30.5q-79 0 -151.5 -30.5t-129 -86t-90.5 -141.5t-34 -190zM324 1276l266 336h98l268 -336h-137l-180 237l-182 -237h-133z" />
<glyph unicode="&#xf5;" horiz-adv-x="1280" d="M109 547q0 244 151.5 407.5t380.5 163.5q150 0 271.5 -75t190 -205.5t68.5 -290.5t-68.5 -290.5t-190 -205t-271.5 -74.5q-151 0 -273 74t-190.5 204.5t-68.5 291.5zM236 547q0 -103 34 -189.5t91 -141.5t129.5 -85.5t150.5 -30.5t150.5 30.5t128.5 86t90 141.5t34 189 t-33.5 189.5t-90 142t-129 86t-150.5 30.5q-79 0 -151.5 -30.5t-129 -86t-90.5 -141.5t-34 -190zM289 1311q-3 59 14 103.5t47.5 70t66 37.5t75.5 12q49 0 92.5 -20t70 -43.5t62 -43.5t71.5 -20q53 0 79 37t24 84h104q3 -59 -13.5 -103.5t-47 -70t-66 -37.5t-75.5 -12 q-49 0 -93 20t-70 43.5t-62 43.5t-72 20q-53 0 -79 -37t-24 -84h-104z" />
<glyph unicode="&#xf6;" horiz-adv-x="1280" d="M109 547q0 244 151.5 407.5t380.5 163.5q150 0 271.5 -75t190 -205.5t68.5 -290.5t-68.5 -290.5t-190 -205t-271.5 -74.5q-151 0 -273 74t-190.5 204.5t-68.5 291.5zM236 547q0 -103 34 -189.5t91 -141.5t129.5 -85.5t150.5 -30.5t150.5 30.5t128.5 86t90 141.5t34 189 t-33.5 189.5t-90 142t-129 86t-150.5 30.5q-79 0 -151.5 -30.5t-129 -86t-90.5 -141.5t-34 -190zM350 1419q0 37 26.5 62.5t63.5 25.5q38 0 65 -25.5t27 -62.5t-27 -62.5t-65 -25.5q-37 0 -63.5 25.5t-26.5 62.5zM748 1419q0 37 26 62.5t64 25.5t64 -25.5t26 -62.5 t-26 -62.5t-64 -25.5t-64 25.5t-26 62.5z" />
<glyph unicode="&#xf7;" horiz-adv-x="1310" d="M111 698v123h1087v-123h-1087zM551 403q0 44 29 73.5t73 29.5t73.5 -29.5t29.5 -73.5t-29.5 -73t-73.5 -29t-73 29t-29 73zM551 1116q0 44 29 73.5t73 29.5t73.5 -29.5t29.5 -73.5t-29.5 -73t-73.5 -29t-73 29t-29 73z" />
<glyph unicode="&#xf8;" horiz-adv-x="1280" d="M109 547q0 244 151.5 407.5t380.5 163.5q210 0 356 -143l123 129l70 -70l-127 -133q108 -152 108 -354q0 -160 -68.5 -290.5t-190 -205t-271.5 -74.5q-200 0 -342 123l-109 -112l-71 67l112 117q-122 153 -122 375zM236 547q0 -167 83 -283l592 621q-113 110 -270 110 q-79 0 -151.5 -30.5t-129 -86t-90.5 -141.5t-34 -190zM387 193q113 -93 254 -93q78 0 150.5 30.5t128.5 86t90 141.5t34 189q0 150 -69 262z" />
<glyph unicode="&#xf9;" horiz-adv-x="1193" d="M170 410v686h127v-693q0 -141 79 -222t216 -81q139 0 222 82t83 224v690h127v-684q0 -195 -117 -315t-315 -120q-195 0 -308.5 119t-113.5 314zM293 1612l274 -336h117l-242 336h-149z" />
<glyph unicode="&#xfa;" horiz-adv-x="1193" d="M170 410v686h127v-693q0 -141 79 -222t216 -81q139 0 222 82t83 224v690h127v-684q0 -195 -117 -315t-315 -120q-195 0 -308.5 119t-113.5 314zM508 1276l242 336h149l-274 -336h-117z" />
<glyph unicode="&#xfb;" horiz-adv-x="1193" d="M170 410v686h127v-693q0 -141 79 -222t216 -81q139 0 222 82t83 224v690h127v-684q0 -195 -117 -315t-315 -120q-195 0 -308.5 119t-113.5 314zM281 1276l266 336h98l268 -336h-137l-180 237l-182 -237h-133z" />
<glyph unicode="&#xfc;" horiz-adv-x="1193" d="M170 410v686h127v-693q0 -141 79 -222t216 -81q139 0 222 82t83 224v690h127v-684q0 -195 -117 -315t-315 -120q-195 0 -308.5 119t-113.5 314zM307 1419q0 37 26.5 62.5t63.5 25.5q38 0 65 -25.5t27 -62.5t-27 -62.5t-65 -25.5q-37 0 -63.5 25.5t-26.5 62.5zM705 1419 q0 37 26 62.5t64 25.5t64 -25.5t26 -62.5t-26 -62.5t-64 -25.5t-64 25.5t-26 62.5z" />
<glyph unicode="&#xfd;" horiz-adv-x="1054" d="M57 1096h142l329 -885h4l332 885h135l-591 -1526h-134l191 473zM440 1276l242 336h149l-274 -336h-117z" />
<glyph unicode="&#xfe;" d="M182 -430v2064h127v-745q57 105 166 164t230 59q98 0 188.5 -39.5t160.5 -110t112 -178.5t42 -235t-42 -235t-112 -179.5t-160.5 -111t-188.5 -39.5q-125 0 -228.5 55t-167.5 172v-641h-127zM305 547q0 -196 109 -320.5t272 -124.5q166 0 277.5 124.5t111.5 322.5 q0 197 -111.5 320.5t-277.5 123.5q-163 0 -272 -124.5t-109 -321.5z" />
<glyph unicode="&#xff;" horiz-adv-x="1054" d="M57 1096h142l329 -885h4l332 885h135l-591 -1526h-134l191 473zM240 1419q0 37 26.5 62.5t63.5 25.5q38 0 65 -25.5t27 -62.5t-27 -62.5t-65 -25.5q-37 0 -63.5 25.5t-26.5 62.5zM637 1419q0 37 26 62.5t64 25.5t64 -25.5t26 -62.5t-26 -62.5t-64 -25.5t-64 25.5 t-26 62.5z" />
<glyph unicode="&#x152;" horiz-adv-x="2015" d="M127 760q0 151 42 278.5t114 217t168 152t203 92.5t220 30q46 0 115 -4t92 -4h785v-123h-654v-559h611v-123h-611v-594h654v-123h-768q-19 0 -96 -4t-128 -4q-113 0 -220 29.5t-203 92t-168 151.5t-114 216.5t-42 278.5zM268 760q0 -148 50.5 -271t136.5 -203.5 t198.5 -124.5t239.5 -44q90 0 192 8v1270q-102 8 -192 8q-127 0 -239.5 -44t-198.5 -124.5t-136.5 -203.5t-50.5 -271z" />
<glyph unicode="&#x153;" horiz-adv-x="2125" d="M109 547q0 244 151.5 407.5t380.5 163.5q140 0 266.5 -78t194.5 -202q66 130 178 205t262 75q98 0 182.5 -36t149.5 -103t102 -173t37 -237l-4 -69h-844q8 -103 44 -181.5t91.5 -125t122.5 -70t144 -23.5q96 0 199.5 36.5t187.5 119.5v-152q-78 -59 -180 -93t-209 -34 q-312 0 -465 279q-73 -128 -190 -203.5t-269 -75.5q-151 0 -273 74t-190.5 204.5t-68.5 291.5zM236 547q0 -103 34 -189.5t91 -141.5t129.5 -85.5t150.5 -30.5t150.5 30.5t128.5 86t90 141.5t34 189t-33.5 189.5t-90 142t-129 86t-150.5 30.5q-79 0 -151.5 -30.5t-129 -86 t-90.5 -141.5t-34 -190zM1167 614h721q-2 96 -32.5 171t-79.5 120t-108.5 67.5t-125.5 22.5q-148 0 -253 -105t-122 -276z" />
<glyph unicode="&#x178;" horiz-adv-x="1290" d="M29 1522h145l473 -742h2l469 742h146l-553 -863v-659h-123v657zM356 1845q0 37 26.5 62.5t63.5 25.5q38 0 65.5 -25.5t27.5 -62.5t-27.5 -62.5t-65.5 -25.5q-37 0 -63.5 25.5t-26.5 62.5zM754 1845q0 37 26 62.5t64 25.5t64 -25.5t26 -62.5t-26 -62.5t-64 -25.5t-64 25.5 t-26 62.5z" />
<glyph unicode="&#x2c6;" horiz-adv-x="1095" d="M233 1276l267 336h98l268 -336h-137l-180 237l-182 -237h-134z" />
<glyph unicode="&#x2dc;" horiz-adv-x="718" d="M8 1311q-3 59 14 103.5t47.5 70t66 37.5t75.5 12q49 0 93 -20t70 -43.5t62 -43.5t72 -20q53 0 78.5 37t23.5 84h105q3 -59 -14 -103.5t-47.5 -70t-66 -37.5t-75.5 -12q-49 0 -93 20t-70 43.5t-62 43.5t-72 20q-53 0 -78.5 -37t-23.5 -84h-105z" />
<glyph unicode="&#x2000;" horiz-adv-x="1027" />
<glyph unicode="&#x2001;" horiz-adv-x="2054" />
<glyph unicode="&#x2002;" horiz-adv-x="1027" />
<glyph unicode="&#x2003;" horiz-adv-x="2054" />
<glyph unicode="&#x2004;" horiz-adv-x="684" />
<glyph unicode="&#x2005;" horiz-adv-x="513" />
<glyph unicode="&#x2006;" horiz-adv-x="342" />
<glyph unicode="&#x2007;" horiz-adv-x="342" />
<glyph unicode="&#x2008;" horiz-adv-x="256" />
<glyph unicode="&#x2009;" horiz-adv-x="410" />
<glyph unicode="&#x200a;" horiz-adv-x="114" />
<glyph unicode="&#x2010;" horiz-adv-x="718" d="M109 592v125h501v-125h-501z" />
<glyph unicode="&#x2011;" horiz-adv-x="718" d="M109 592v125h501v-125h-501z" />
<glyph unicode="&#x2012;" horiz-adv-x="718" d="M109 592v125h501v-125h-501z" />
<glyph unicode="&#x2013;" horiz-adv-x="964" d="M109 592v125h747v-125h-747z" />
<glyph unicode="&#x2014;" horiz-adv-x="1570" d="M109 592v125h1353v-125h-1353z" />
<glyph unicode="&#x2018;" horiz-adv-x="489" d="M139 989v80q0 159 115 453h100q-88 -264 -88 -451v-82h-127z" />
<glyph unicode="&#x2019;" horiz-adv-x="489" d="M135 989q88 264 88 451v82h127v-80q0 -162 -114 -453h-101z" />
<glyph unicode="&#x201a;" horiz-adv-x="489" d="M131 -272q88 264 88 450v82h127v-80q0 -158 -115 -452h-100z" />
<glyph unicode="&#x201c;" horiz-adv-x="811" d="M139 989v80q0 159 115 453h100q-88 -264 -88 -451v-82h-127zM461 989v80q0 162 114 453h101q-88 -264 -88 -451v-82h-127z" />
<glyph unicode="&#x201d;" horiz-adv-x="806" d="M135 989q88 264 88 451v82h127v-80q0 -162 -114 -453h-101zM453 989q88 264 88 451v82h127v-80q0 -159 -115 -453h-100z" />
<glyph unicode="&#x201e;" horiz-adv-x="825" d="M131 -274q88 264 88 450v82h127v-80q0 -158 -115 -452h-100zM467 -274q88 264 88 450v82h127v-80q0 -158 -115 -452h-100z" />
<glyph unicode="&#x2022;" horiz-adv-x="819" d="M133 760q0 115 80.5 195.5t196.5 80.5t196 -80t80 -196t-80.5 -196.5t-195.5 -80.5q-116 0 -196.5 80.5t-80.5 196.5z" />
<glyph unicode="&#x2026;" horiz-adv-x="1521" d="M139 94q0 44 29.5 73.5t73.5 29.5t73 -29.5t29 -73.5t-29 -73t-73 -29t-73.5 29t-29.5 73zM659 94q0 44 29.5 73.5t73.5 29.5t73 -29.5t29 -73.5t-29 -73t-73 -29t-73.5 29t-29.5 73zM1180 94q0 44 29 73.5t73 29.5t73 -29.5t29 -73.5t-29 -73t-73 -29t-73 29t-29 73z " />
<glyph unicode="&#x202f;" horiz-adv-x="410" />
<glyph unicode="&#x2039;" horiz-adv-x="688" d="M90 498v100l508 422v-150l-393 -323l393 -322v-149z" />
<glyph unicode="&#x203a;" horiz-adv-x="688" d="M90 76v149l393 324l-393 321v150l508 -422v-100z" />
<glyph unicode="&#x205f;" horiz-adv-x="513" />
<glyph unicode="&#x20ac;" horiz-adv-x="1361" d="M115 565v119h157q-2 25 -2 76q0 30 4 88h-159v119h178q57 256 236 419.5t425 163.5q159 0 258 -51v-135q-116 61 -245 61q-203 0 -350 -125.5t-201 -332.5h592v-119h-613q-4 -58 -4 -88q0 -51 2 -76h615v-119h-596q50 -216 197.5 -342.5t357.5 -126.5q127 0 245 62v-135 q-101 -52 -258 -52q-126 0 -238 45t-196 124.5t-143.5 188t-85.5 236.5h-176z" />
<glyph unicode="&#x2122;" horiz-adv-x="1894" d="M82 1411v111h627v-111h-256v-766h-113v766h-258zM762 645l137 877h133l234 -705h2l231 705h135l138 -877h-111l-111 707h-4l-233 -707h-94l-236 701h-4l-109 -701h-108z" />
<glyph unicode="&#x25fc;" horiz-adv-x="1095" d="M0 0v1096h1096v-1096h-1096z" />
</font>
</defs>
</svg>
